<svg width="324" height="298" viewBox="0 0 324 298" fill="none" xmlns="http://www.w3.org/2000/svg">
<path d="M37.0829 0V12.6158H28.5896V63.0325H14.2793V12.6158H5.80146V0H37.0829Z" fill="#FF0000"/>
<path d="M50.1865 0V14.185C51.3623 12.9421 52.6463 11.9943 54.0077 11.3729C55.3846 10.7514 56.8389 10.4407 58.4014 10.4407C60.7993 10.4407 62.8414 11.1398 64.5432 12.5381C66.2295 13.9364 67.266 15.5523 67.6373 17.3856C68.0086 19.2189 68.1942 22.5593 68.1942 27.4068V63.0169H54.4564V26.661C54.4564 23.6469 54.3326 21.7203 54.0696 20.8658C53.8066 20.0113 53.2187 19.5763 52.3214 19.5763C51.486 19.5763 50.9136 20.0113 50.6197 20.8969C50.3257 21.7825 50.171 23.5381 50.171 26.1483V63.0169H36.4332V0H50.1865Z" fill="#FF0000"/>
<path d="M100.543 38.1116H82.7675V49.2825C82.7675 51.613 82.9222 53.1201 83.2162 53.8037C83.5101 54.4718 84.0825 54.8136 84.9179 54.8136C85.9545 54.8136 86.6506 54.363 87.0064 53.4774C87.3623 52.5763 87.5324 50.8517 87.5324 48.2881V41.4831H100.543V45.3051C100.543 48.4901 100.373 50.9449 100.017 52.6695C99.6614 54.3785 98.8414 56.2119 97.5574 58.154C96.2733 60.096 94.6334 61.5565 92.6532 62.5353C90.673 63.5141 88.1822 63.9958 85.1964 63.9958C82.2106 63.9958 79.7353 63.5141 77.5075 62.5508C75.2798 61.5876 73.5625 60.2669 72.3249 58.6045C71.0872 56.9266 70.2364 55.0932 69.7568 53.0734C69.2772 51.0692 69.0451 48.1328 69.0451 44.2952V29.2246C69.0451 24.7034 69.5711 21.1455 70.6386 18.5353C71.7061 15.9251 73.4542 13.9364 75.8676 12.5381C78.2965 11.1554 81.0812 10.4562 84.2217 10.4562C88.0739 10.4562 91.2454 11.2952 93.7516 12.9732C96.2578 14.6511 98.006 16.8729 99.0271 19.6229C100.033 22.3884 100.543 26.2726 100.543 31.2754V38.1271V38.1116ZM86.7744 29.7062V25.9308C86.7744 23.2585 86.6506 21.5339 86.4031 20.7571C86.1556 19.9802 85.645 19.5918 84.8715 19.5918C83.9123 19.5918 83.3245 19.9181 83.1079 20.5862C82.8913 21.2542 82.7675 23.0254 82.7675 25.9308V29.7062H86.7744Z" fill="#FF0000"/>
<path d="M31.266 0V12.6158H22.7727V63.0325H8.4624V12.6158H0V0H31.266Z" fill="#22DDDD"/>
<path d="M44.3696 0V14.185C45.5453 12.9421 46.8294 11.9943 48.1908 11.3729C49.5677 10.7514 51.0219 10.4407 52.5844 10.4407C54.9824 10.4407 57.0245 11.1398 58.7263 12.5381C60.4126 13.9364 61.4491 15.5523 61.8204 17.3856C62.1917 19.2189 62.3773 22.5593 62.3773 27.4068V63.0169H48.6395V26.661C48.6395 23.6469 48.5157 21.7203 48.2527 20.8658C47.9897 20.0113 47.4018 19.5763 46.5045 19.5763C45.6691 19.5763 45.0967 20.0113 44.8027 20.8969C44.5088 21.7825 44.3541 23.5381 44.3541 26.1483V63.0169H30.6162V0H44.3696Z" fill="#22DDDD"/>
<path d="M94.7263 38.1116H76.9506V49.2825C76.9506 51.613 77.1053 53.1201 77.3992 53.8037C77.6932 54.4718 78.2656 54.8136 79.101 54.8136C80.1375 54.8136 80.8337 54.363 81.1895 53.4774C81.5453 52.5763 81.7155 50.8517 81.7155 48.2881V41.4831H94.7263V45.3051C94.7263 48.4901 94.5561 50.9449 94.2003 52.6695C93.8444 54.3785 93.0245 56.2119 91.7404 58.154C90.4564 60.096 88.8165 61.5565 86.8363 62.5353C84.856 63.5141 82.3653 63.9958 79.3795 63.9958C76.3936 63.9958 73.9184 63.5141 71.6906 62.5508C69.4628 61.5876 67.7456 60.2669 66.5079 58.6045C65.2703 56.9266 64.4194 55.0932 63.9398 53.0734C63.4603 51.0692 63.2282 48.1328 63.2282 44.2952V29.2246C63.2282 24.7034 63.7542 21.1455 64.8217 18.5353C65.8891 15.9251 67.6373 13.9364 70.0507 12.5381C72.4796 11.1554 75.2643 10.4562 78.4048 10.4562C82.257 10.4562 85.4284 11.2952 87.9347 12.9732C90.4409 14.6511 92.1891 16.8729 93.2101 19.6229C94.2157 22.3884 94.7263 26.2726 94.7263 31.2754V38.1271V38.1116ZM80.9729 29.7062V25.9308C80.9729 23.2585 80.8492 21.5339 80.6016 20.7571C80.3541 19.9802 79.8436 19.5918 79.07 19.5918C78.1109 19.5918 77.523 19.9181 77.3064 20.5862C77.0898 21.2542 76.966 23.0254 76.966 25.9308V29.7062H80.9729Z" fill="#22DDDD"/>
<path d="M34.1745 0V12.6158H25.6811V63.0325H11.3709V12.6158H2.90847V0H34.1745Z" fill="#F3FAFF"/>
<path d="M47.278 0V14.185C48.4538 12.9421 49.7379 11.9943 51.0993 11.3729C52.4762 10.7514 53.9304 10.4407 55.4929 10.4407C57.8908 10.4407 59.933 11.1398 61.6347 12.5381C63.321 13.9364 64.3575 15.5523 64.7288 17.3856C65.1001 19.2189 65.2858 22.5593 65.2858 27.4068V63.0169H51.5479V26.661C51.5479 23.6469 51.4241 21.7203 51.1612 20.8658C50.8982 20.0113 50.3103 19.5763 49.413 19.5763C48.5776 19.5763 48.0052 20.0113 47.7112 20.8969C47.4173 21.7825 47.2626 23.5381 47.2626 26.1483V63.0169H33.5247V0H47.278Z" fill="#F3FAFF"/>
<path d="M97.6347 38.1116H79.859V49.2825C79.859 51.613 80.0137 53.1201 80.3077 53.8037C80.6016 54.4718 81.174 54.8136 82.0094 54.8136C83.046 54.8136 83.7422 54.363 84.098 53.4774C84.4538 52.5763 84.624 50.8517 84.624 48.2881V41.4831H97.6347V45.3051C97.6347 48.4901 97.4645 50.9449 97.1087 52.6695C96.7529 54.3785 95.933 56.2119 94.6489 58.154C93.3648 60.096 91.725 61.5565 89.7447 62.5353C87.7645 63.5141 85.2737 63.9958 82.2879 63.9958C79.3021 63.9958 76.8268 63.5141 74.5991 62.5508C72.3713 61.5876 70.6541 60.2669 69.4164 58.6045C68.1788 56.9266 67.3279 55.0932 66.8483 53.0734C66.3687 51.0692 66.1367 48.1328 66.1367 44.2952V29.2246C66.1367 24.7034 66.6627 21.1455 67.7301 18.5353C68.7976 15.9251 70.5458 13.9364 72.9592 12.5381C75.388 11.1554 78.1728 10.4562 81.3133 10.4562C85.1655 10.4562 88.3369 11.2952 90.8431 12.9732C93.3494 14.6511 95.0975 16.8729 96.1186 19.6229C97.1242 22.3884 97.6347 26.2726 97.6347 31.2754V38.1271V38.1116ZM83.8659 29.7062V25.9308C83.8659 23.2585 83.7422 21.5339 83.4946 20.7571C83.2471 19.9802 82.7366 19.5918 81.963 19.5918C81.0039 19.5918 80.416 19.9181 80.1994 20.5862C79.9828 21.2542 79.859 23.0254 79.859 25.9308V29.7062H83.8659Z" fill="#F3FAFF"/>
<path d="M90.0696 114.677H64.3111V95.0071C64.3111 89.2896 64.0327 85.7161 63.4912 84.3023C62.9343 82.8884 61.7276 82.1737 59.8556 82.1737C57.7361 82.1737 56.3902 83.0438 55.8178 84.7528C55.2454 86.4774 54.9669 90.2062 54.9669 95.9393V148.516C54.9669 154.016 55.2454 157.605 55.8178 159.282C56.3902 160.96 57.6743 161.799 59.67 161.799C61.6657 161.799 62.8414 160.96 63.4293 159.282C64.0172 157.605 64.3111 153.658 64.3111 147.443V133.212H90.0696V137.624C90.0696 149.339 89.3425 157.651 87.9037 162.545C86.4495 167.439 83.2471 171.743 78.2965 175.425C73.3459 179.107 67.2351 180.956 59.9794 180.956C52.7237 180.956 46.2106 179.387 41.3219 176.28C36.4332 173.157 33.1844 168.838 31.5909 163.306C29.9974 157.775 29.2084 149.479 29.2084 138.386V105.323C29.2084 97.1667 29.456 91.0452 29.9355 86.9746C30.4306 82.904 31.8848 78.9732 34.3137 75.1977C36.7426 71.4223 40.0997 68.4548 44.416 66.2797C48.7168 64.1201 53.6674 63.0325 59.2523 63.0325C66.8328 63.0325 73.0984 64.7104 78.0335 68.0664C82.9686 71.4223 86.2174 75.6017 87.7645 80.6045C89.3116 85.6073 90.0851 93.3913 90.0851 103.956V114.708L90.0696 114.677Z" fill="#FF0000"/>
<path d="M143.582 118.39V141.105C143.582 149.448 143.211 155.569 142.484 159.453C141.757 163.338 140.179 166.973 137.765 170.36C135.352 173.747 132.273 176.233 128.498 177.833C124.724 179.434 120.392 180.242 115.503 180.242C110.042 180.242 105.401 179.558 101.611 178.175C97.8204 176.808 94.8655 174.726 92.777 171.96C90.673 169.195 89.1723 165.839 88.275 161.893C87.3777 157.962 86.9291 152.042 86.9291 144.165V120.394C86.9291 111.771 87.749 105.044 89.3734 100.196C90.9979 95.3489 93.9373 91.4647 98.1762 88.5282C102.415 85.5918 107.845 84.1314 114.451 84.1314C120.005 84.1314 124.755 85.0791 128.731 86.959C132.706 88.839 135.77 91.3093 137.936 94.339C140.101 97.3686 141.571 100.492 142.376 103.708C143.18 106.924 143.567 111.818 143.567 118.39H143.582ZM118.86 111.398C118.86 106.644 118.628 103.645 118.18 102.418C117.731 101.191 116.772 100.569 115.302 100.569C113.832 100.569 112.858 101.191 112.363 102.418C111.868 103.661 111.636 106.644 111.636 111.398V153.27C111.636 157.651 111.883 160.51 112.363 161.831C112.858 163.151 113.817 163.819 115.24 163.819C116.664 163.819 117.685 163.213 118.149 162.001C118.613 160.79 118.86 158.179 118.86 154.171V111.383V111.398Z" fill="#FF0000"/>
<path d="M172.156 85.8093L171.723 94.3545C173.518 90.952 175.715 88.3884 178.298 86.6794C180.882 84.9703 183.883 84.1158 187.256 84.1158C191.495 84.1158 194.96 85.2655 197.652 87.5339C200.344 89.8178 202.076 92.6921 202.85 96.1723C203.624 99.637 204.01 105.432 204.01 113.542V178.564H179.288V114.319C179.288 107.934 179.103 104.049 178.731 102.651C178.36 101.253 177.339 100.554 175.668 100.554C173.92 100.554 172.806 101.362 172.358 102.962C171.909 104.562 171.677 108.866 171.677 115.857V178.564H146.955V85.7938H172.095L172.156 85.8093Z" fill="#FF0000"/>
<path d="M265.537 85.8093V157.247C265.537 166.895 265.336 173.126 264.949 175.953C264.562 178.766 263.185 181.749 260.818 184.903C258.451 188.041 255.156 190.449 250.933 192.096C246.709 193.743 241.403 194.582 234.998 194.582C227.123 194.582 220.796 193.059 216.031 189.999C211.266 186.953 208.791 180.941 208.621 171.992H232.6C232.6 176.093 233.899 178.144 236.514 178.144C238.386 178.144 239.639 177.523 240.242 176.249C240.861 174.99 241.155 172.349 241.155 168.34V161.349C239.036 163.54 236.808 165.202 234.456 166.321C232.105 167.439 229.661 167.999 227.077 167.999C222.637 167.999 218.97 166.973 216.093 164.922C213.215 162.871 211.251 160.184 210.183 156.843C209.116 153.518 208.59 148.764 208.59 142.612V108.912C208.59 100.103 209.982 93.7641 212.751 89.8955C215.52 86.0268 219.744 84.1003 225.422 84.1003C228.516 84.1003 231.347 84.8305 233.899 86.2754C236.452 87.7203 238.726 89.8955 240.722 92.7853L242.501 85.7782H265.506L265.537 85.8093ZM240.753 110.419C240.753 106.178 240.536 103.475 240.103 102.309C239.67 101.144 238.726 100.569 237.257 100.569C235.787 100.569 234.812 101.237 234.224 102.558C233.636 103.879 233.342 106.504 233.342 110.419V141.602C233.342 145.75 233.559 148.438 234.023 149.681C234.472 150.924 235.416 151.53 236.839 151.53C238.463 151.53 239.531 150.784 240.026 149.292C240.521 147.801 240.753 144.429 240.753 139.162V110.419Z" fill="#FF0000"/>
<path d="M324 118.39V141.105C324 149.448 323.629 155.569 322.902 159.453C322.174 163.338 320.596 166.973 318.183 170.36C315.77 173.747 312.691 176.233 308.916 177.833C305.141 179.434 300.81 180.242 295.921 180.242C290.46 180.242 285.819 179.558 282.028 178.175C278.238 176.808 275.283 174.726 273.195 171.96C271.091 169.195 269.59 165.839 268.693 161.893C267.795 157.962 267.347 152.042 267.347 144.165V120.394C267.347 111.771 268.167 105.044 269.791 100.196C271.416 95.3489 274.355 91.4647 278.594 88.5282C282.833 85.5918 288.263 84.1314 294.869 84.1314C300.423 84.1314 305.172 85.0791 309.148 86.959C313.124 88.839 316.187 91.3093 318.353 94.339C320.519 97.3686 321.989 100.492 322.793 103.708C323.598 106.924 323.985 111.818 323.985 118.39H324ZM299.278 111.398C299.278 106.644 299.046 103.645 298.597 102.418C298.149 101.191 297.19 100.569 295.72 100.569C294.25 100.569 293.275 101.191 292.78 102.418C292.285 103.661 292.053 106.644 292.053 111.398V153.27C292.053 157.651 292.301 160.51 292.78 161.831C293.275 163.151 294.235 163.819 295.658 163.819C297.081 163.819 298.102 163.213 298.566 162.001C299.031 160.79 299.278 158.179 299.278 154.171V111.383V111.398Z" fill="#FF0000"/>
<path d="M85.1809 114.677H59.4224V95.0071C59.4224 89.2895 59.144 85.7161 58.6025 84.3022C58.0456 82.8884 56.8389 82.1737 54.9669 82.1737C52.8474 82.1737 51.5015 83.0438 50.9291 84.7528C50.3567 86.4774 50.0782 90.2062 50.0782 95.9393V148.516C50.0782 154.016 50.3567 157.605 50.9291 159.282C51.5015 160.96 52.7856 161.799 54.7813 161.799C56.777 161.799 57.9527 160.96 58.5406 159.282C59.1285 157.605 59.4224 153.658 59.4224 147.443V133.212H85.1809V137.624C85.1809 149.339 84.4538 157.651 83.015 162.545C81.5608 167.439 78.3584 171.743 73.4078 175.425C68.4572 179.107 62.3464 180.956 55.0907 180.956C47.835 180.956 41.3219 179.387 36.4332 176.28C31.5445 173.157 28.2957 168.838 26.7022 163.306C25.1087 157.775 24.3197 149.479 24.3197 138.386V105.323C24.3197 97.1667 24.5673 91.0452 25.0468 86.9746C25.5419 82.9039 26.9961 78.9732 29.425 75.1977C31.8539 71.4223 35.211 68.4548 39.5273 66.2797C43.8281 64.12 48.7787 63.0325 54.3636 63.0325C61.9441 63.0325 68.2097 64.7104 73.1448 68.0664C78.0799 71.4223 81.3288 75.6017 82.8758 80.6045C84.4229 85.6073 85.1964 93.3912 85.1964 103.956V114.708L85.1809 114.677Z" fill="#22DDDD"/>
<path d="M138.709 118.39V141.105C138.709 149.448 138.338 155.569 137.611 159.453C136.884 163.338 135.306 166.973 132.892 170.36C130.479 173.747 127.4 176.233 123.625 177.833C119.85 179.434 115.519 180.242 110.63 180.242C105.169 180.242 100.528 179.558 96.7374 178.175C92.9471 176.808 89.9923 174.726 87.9037 171.96C85.7997 169.195 84.2991 165.839 83.4018 161.893C82.5045 157.962 82.0559 152.042 82.0559 144.165V120.394C82.0559 111.771 82.8758 105.044 84.5002 100.196C86.1246 95.3489 89.064 91.4647 93.303 88.5282C97.5419 85.5918 102.972 84.1314 109.578 84.1314C115.132 84.1314 119.881 85.0791 123.857 86.959C127.833 88.839 130.896 91.3093 133.062 94.339C135.228 97.3686 136.698 100.492 137.502 103.708C138.307 106.924 138.694 111.818 138.694 118.39H138.709ZM113.987 111.398C113.987 106.644 113.755 103.645 113.306 102.418C112.858 101.191 111.899 100.569 110.429 100.569C108.959 100.569 107.985 101.191 107.489 102.418C106.994 103.661 106.762 106.644 106.762 111.398V153.27C106.762 157.651 107.01 160.51 107.489 161.831C107.985 163.151 108.944 163.819 110.367 163.819C111.79 163.819 112.811 163.213 113.275 162.001C113.74 160.79 113.987 158.179 113.987 154.171V111.383V111.398Z" fill="#22DDDD"/>
<path d="M167.268 85.8093L166.835 94.3545C168.629 90.952 170.826 88.3884 173.41 86.6794C175.993 84.9703 178.994 84.1158 182.367 84.1158C186.606 84.1158 190.071 85.2655 192.763 87.5339C195.455 89.8178 197.188 92.6921 197.961 96.1723C198.735 99.637 199.122 105.432 199.122 113.542V178.564H174.4V114.319C174.4 107.934 174.214 104.049 173.843 102.651C173.471 101.253 172.45 100.554 170.78 100.554C169.031 100.554 167.917 101.362 167.469 102.962C167.02 104.562 166.788 108.866 166.788 115.857V178.564H142.066V85.7938H167.206L167.268 85.8093Z" fill="#22DDDD"/>
<path d="M260.648 85.8093V157.247C260.648 166.895 260.447 173.126 260.06 175.953C259.673 178.766 258.297 181.749 255.93 184.903C253.563 188.041 250.267 190.449 246.044 192.096C241.82 193.743 236.514 194.582 230.109 194.582C222.235 194.582 215.907 193.059 211.142 189.999C206.377 186.953 203.902 180.941 203.732 171.992H227.711C227.711 176.093 229.011 178.144 231.625 178.144C233.497 178.144 234.75 177.523 235.354 176.249C235.973 174.99 236.266 172.349 236.266 168.34V161.349C234.147 163.54 231.919 165.202 229.568 166.321C227.216 167.439 224.772 167.999 222.188 167.999C217.748 167.999 214.082 166.973 211.204 164.922C208.327 162.871 206.362 160.184 205.294 156.843C204.227 153.518 203.701 148.764 203.701 142.612V108.912C203.701 100.103 205.093 93.7641 207.862 89.8955C210.632 86.0268 214.855 84.1003 220.533 84.1003C223.627 84.1003 226.458 84.8305 229.011 86.2754C231.563 87.7203 233.838 89.8955 235.833 92.7853L237.612 85.7782H260.617L260.648 85.8093ZM235.864 110.419C235.864 106.178 235.648 103.475 235.214 102.309C234.781 101.144 233.838 100.569 232.368 100.569C230.898 100.569 229.924 101.237 229.336 102.558C228.748 103.879 228.454 106.504 228.454 110.419V141.602C228.454 145.75 228.67 148.438 229.135 149.681C229.583 150.924 230.527 151.53 231.95 151.53C233.575 151.53 234.642 150.784 235.137 149.292C235.632 147.801 235.864 144.429 235.864 139.162V110.419Z" fill="#22DDDD"/>
<path d="M319.111 118.39V141.105C319.111 149.448 318.74 155.569 318.013 159.453C317.286 163.338 315.708 166.973 313.294 170.36C310.881 173.747 307.802 176.233 304.028 177.833C300.253 179.434 295.921 180.242 291.032 180.242C285.571 180.242 280.93 179.558 277.14 178.175C273.349 176.808 270.395 174.726 268.306 171.96C266.202 169.195 264.701 165.839 263.804 161.893C262.907 157.962 262.458 152.042 262.458 144.165V120.394C262.458 111.771 263.278 105.044 264.902 100.196C266.527 95.3489 269.466 91.4647 273.705 88.5282C277.944 85.5918 283.374 84.1314 289.98 84.1314C295.534 84.1314 300.284 85.0791 304.26 86.959C308.236 88.839 311.299 91.3093 313.465 94.339C315.63 97.3686 317.1 100.492 317.905 103.708C318.709 106.924 319.096 111.818 319.096 118.39H319.111ZM294.405 111.398C294.405 106.644 294.173 103.645 293.724 102.418C293.275 101.191 292.316 100.569 290.847 100.569C289.377 100.569 288.402 101.191 287.907 102.418C287.412 103.661 287.18 106.644 287.18 111.398V153.27C287.18 157.651 287.428 160.51 287.907 161.831C288.402 163.151 289.361 163.819 290.785 163.819C292.208 163.819 293.229 163.213 293.693 162.001C294.157 160.79 294.405 158.179 294.405 154.171V111.383V111.398Z" fill="#22DDDD"/>
<path d="M87.6253 114.677H61.8668V95.0071C61.8668 89.2896 61.5883 85.7161 61.0468 84.3023C60.4899 82.8884 59.2832 82.1737 57.4113 82.1737C55.2918 82.1737 53.9459 83.0438 53.3734 84.7528C52.801 86.4774 52.5226 90.2062 52.5226 95.9393V148.516C52.5226 154.016 52.801 157.605 53.3734 159.282C53.9459 160.96 55.2299 161.799 57.2256 161.799C59.2213 161.799 60.3971 160.96 60.985 159.282C61.5728 157.605 61.8668 153.658 61.8668 147.443V133.212H87.6253V137.624C87.6253 149.339 86.8982 157.651 85.4594 162.545C84.0052 167.439 80.8027 171.743 75.8522 175.425C70.9016 179.107 64.7907 180.956 57.535 180.956C50.2793 180.956 43.7662 179.387 38.8775 176.28C33.9888 173.157 30.74 168.838 29.1465 163.306C27.5531 157.775 26.7641 149.479 26.7641 138.386V105.323C26.7641 97.1667 27.0116 91.0452 27.4912 86.9746C27.9862 82.904 29.4405 78.9732 31.8694 75.1977C34.2982 71.4223 37.6553 68.4548 41.9716 66.2797C46.2725 64.1201 51.223 63.0325 56.8079 63.0325C64.3885 63.0325 70.6541 64.7104 75.5892 68.0664C80.5243 71.4223 83.7731 75.6017 85.3202 80.6045C86.8672 85.6073 87.6407 93.3913 87.6407 103.956V114.708L87.6253 114.677Z" fill="#F3FAFF"/>
<path d="M141.138 118.39V141.105C141.138 149.448 140.767 155.569 140.04 159.453C139.312 163.338 137.734 166.973 135.321 170.36C132.908 173.747 129.829 176.233 126.054 177.833C122.279 179.434 117.948 180.242 113.059 180.242C107.598 180.242 102.957 179.558 99.1663 178.175C95.376 176.808 92.4211 174.726 90.3326 171.96C88.2286 169.195 86.728 165.839 85.8307 161.893C84.9334 157.962 84.4847 152.042 84.4847 144.165V120.394C84.4847 111.771 85.3047 105.044 86.9291 100.196C88.5535 95.3489 91.4929 91.4647 95.7318 88.5282C99.9708 85.5918 105.401 84.1314 112.007 84.1314C117.561 84.1314 122.31 85.0791 126.286 86.959C130.262 88.839 133.325 91.3093 135.491 94.339C137.657 97.3686 139.127 100.492 139.931 103.708C140.736 106.924 141.122 111.818 141.122 118.39H141.138ZM116.431 111.398C116.431 106.644 116.199 103.645 115.751 102.418C115.302 101.191 114.343 100.569 112.873 100.569C111.404 100.569 110.429 101.191 109.934 102.418C109.439 103.661 109.207 106.644 109.207 111.398V153.27C109.207 157.651 109.454 160.51 109.934 161.831C110.429 163.151 111.388 163.819 112.811 163.819C114.235 163.819 115.256 163.213 115.72 162.001C116.184 160.79 116.431 158.179 116.431 154.171V111.383V111.398Z" fill="#F3FAFF"/>
<path d="M169.712 85.8093L169.279 94.3545C171.073 90.952 173.27 88.3884 175.854 86.6794C178.437 84.9703 181.439 84.1158 184.811 84.1158C189.05 84.1158 192.516 85.2655 195.208 87.5339C197.899 89.8178 199.632 92.6921 200.406 96.1723C201.179 99.637 201.566 105.432 201.566 113.542V178.564H176.844V114.319C176.844 107.934 176.658 104.049 176.287 102.651C175.916 101.253 174.895 100.554 173.224 100.554C171.476 100.554 170.362 101.362 169.913 102.962C169.465 104.562 169.232 108.866 169.232 115.857V178.564H144.511V85.7938H169.65L169.712 85.8093Z" fill="#F3FAFF"/>
<path d="M263.092 85.8093V157.247C263.092 166.895 262.891 173.126 262.505 175.953C262.118 178.766 260.741 181.749 258.374 184.903C256.007 188.041 252.712 190.449 248.488 192.096C244.265 193.743 238.958 194.582 232.554 194.582C224.679 194.582 218.352 193.059 213.587 189.999C208.822 186.953 206.346 180.941 206.176 171.992H230.156C230.156 176.093 231.455 178.144 234.07 178.144C235.942 178.144 237.195 177.523 237.798 176.249C238.417 174.99 238.711 172.349 238.711 168.34V161.349C236.591 163.54 234.364 165.202 232.012 166.321C229.661 167.439 227.216 167.999 224.633 167.999C220.193 167.999 216.526 166.973 213.648 164.922C210.771 162.871 208.806 160.184 207.739 156.843C206.671 153.518 206.145 148.764 206.145 142.612V108.912C206.145 100.103 207.538 93.7641 210.307 89.8955C213.076 86.0268 217.3 84.1003 222.977 84.1003C226.071 84.1003 228.902 84.8305 231.455 86.2754C234.008 87.7203 236.282 89.8955 238.278 92.7853L240.057 85.7782H263.061L263.092 85.8093ZM238.309 110.419C238.309 106.178 238.092 103.475 237.659 102.309C237.226 101.144 236.282 100.569 234.812 100.569C233.342 100.569 232.368 101.237 231.78 102.558C231.192 103.879 230.898 106.504 230.898 110.419V141.602C230.898 145.75 231.115 148.438 231.579 149.681C232.027 150.924 232.971 151.53 234.395 151.53C236.019 151.53 237.086 150.784 237.581 149.292C238.077 147.801 238.309 144.429 238.309 139.162V110.419Z" fill="#F3FAFF"/>
<path d="M321.556 118.39V141.105C321.556 149.448 321.184 155.569 320.457 159.453C319.73 163.338 318.152 166.973 315.739 170.36C313.325 173.747 310.247 176.233 306.472 177.833C302.697 179.434 298.365 180.242 293.477 180.242C288.015 180.242 283.374 179.558 279.584 178.175C275.794 176.808 272.839 174.726 270.75 171.96C268.646 169.195 267.146 165.839 266.248 161.893C265.351 157.962 264.902 152.042 264.902 144.165V120.394C264.902 111.771 265.722 105.044 267.347 100.196C268.971 95.3489 271.911 91.4647 276.15 88.5282C280.388 85.5918 285.819 84.1314 292.425 84.1314C297.979 84.1314 302.728 85.0791 306.704 86.959C310.68 88.839 313.743 91.3093 315.909 94.339C318.075 97.3686 319.544 100.492 320.349 103.708C321.153 106.924 321.54 111.818 321.54 118.39H321.556ZM296.834 111.398C296.834 106.644 296.602 103.645 296.153 102.418C295.704 101.191 294.745 100.569 293.275 100.569C291.806 100.569 290.831 101.191 290.336 102.418C289.841 103.661 289.609 106.644 289.609 111.398V153.27C289.609 157.651 289.856 160.51 290.336 161.831C290.831 163.151 291.79 163.819 293.214 163.819C294.637 163.819 295.658 163.213 296.122 162.001C296.586 160.79 296.834 158.179 296.834 154.171V111.383V111.398Z" fill="#F3FAFF"/>
<path d="M91.4001 211.859H67.5135V203.081C67.5135 198.979 67.2041 196.369 66.6008 195.25C65.982 194.131 64.9764 193.572 63.5376 193.572C61.9905 193.572 60.8148 194.333 60.0258 195.84C59.2368 197.347 58.8345 199.647 58.8345 202.723C58.8345 206.685 59.2832 209.653 60.1805 211.657C61.0314 213.661 63.4602 216.069 67.4517 218.897C78.8999 227.038 86.1092 233.719 89.095 238.939C92.0653 244.16 93.5505 252.581 93.5505 264.202C93.5505 272.654 92.7306 278.869 91.0752 282.877C89.4199 286.886 86.2329 290.242 81.5144 292.945C76.7959 295.648 71.2884 297.016 65.0228 297.016C58.1384 297.016 52.2596 295.446 47.3863 292.323C42.5131 289.201 39.3262 285.223 37.8255 280.391C36.3249 275.559 35.5668 268.708 35.5668 259.821V252.068H59.4534V266.486C59.4534 270.929 59.7937 273.788 60.459 275.047C61.1242 276.321 62.3154 276.958 64.0327 276.958C65.7499 276.958 67.0185 276.15 67.8539 274.549C68.6893 272.934 69.107 270.541 69.107 267.371C69.107 260.395 68.318 255.828 66.7245 253.684C65.1001 251.54 61.0778 247.951 54.6884 242.917C48.2991 237.836 44.0602 234.154 41.9716 231.855C39.8986 229.555 38.1659 226.386 36.8045 222.331C35.4431 218.275 34.7624 213.102 34.7624 206.809C34.7624 197.736 35.737 191.102 37.6708 186.891C39.6046 182.696 42.7297 179.418 47.046 177.041C51.3623 174.679 56.5759 173.483 62.6867 173.483C69.37 173.483 75.0632 174.773 79.7662 177.367C84.4693 179.962 87.5943 183.209 89.1104 187.14C90.642 191.071 91.4001 197.751 91.4001 207.167V211.859Z" fill="#FF0000"/>
<path d="M150.467 231.482V255.268C150.467 264 150.095 270.417 149.368 274.487C148.641 278.558 147.063 282.364 144.665 285.907C142.267 289.449 139.173 292.059 135.414 293.737C131.639 295.415 127.323 296.27 122.434 296.27C116.973 296.27 112.347 295.555 108.557 294.11C104.767 292.665 101.827 290.506 99.7233 287.6C97.6193 284.695 96.1341 281.184 95.2368 277.051C94.3395 272.934 93.8909 266.734 93.8909 258.5V233.61C93.8909 224.583 94.7108 217.53 96.3352 212.449C97.9596 207.369 100.899 203.298 105.138 200.222C109.377 197.145 114.792 195.607 121.398 195.607C126.936 195.607 131.701 196.602 135.661 198.575C139.637 200.548 142.7 203.127 144.851 206.297C147.017 209.466 148.486 212.744 149.275 216.1C150.064 219.472 150.467 224.599 150.467 231.482ZM125.791 224.164C125.791 219.192 125.559 216.054 125.126 214.764C124.677 213.475 123.718 212.822 122.248 212.822C120.779 212.822 119.804 213.475 119.309 214.764C118.814 216.054 118.582 219.192 118.582 224.164V268.024C118.582 272.607 118.829 275.606 119.309 276.989C119.804 278.387 120.748 279.071 122.187 279.071C123.625 279.071 124.615 278.434 125.095 277.16C125.559 275.886 125.791 273.151 125.791 268.956V224.148V224.164Z" fill="#FF0000"/>
<path d="M206.919 234.045H183.636V222.843C183.636 218.943 183.373 216.287 182.847 214.904C182.321 213.506 181.346 212.822 179.907 212.822C178.468 212.822 177.525 213.428 177.03 214.655C176.535 215.883 176.303 218.602 176.303 222.859V268.692C176.303 272.157 176.674 274.751 177.401 276.492C178.128 278.232 179.211 279.086 180.634 279.086C182.305 279.086 183.434 278.185 184.022 276.383C184.61 274.581 184.904 271.162 184.904 266.129V254.554H206.903C206.857 262.306 206.625 268.133 206.207 272.017C205.774 275.901 204.413 279.879 202.107 283.949C199.802 288.02 196.801 291.096 193.088 293.178C189.375 295.26 184.796 296.285 179.335 296.285C172.373 296.285 166.85 294.856 162.781 291.997C158.713 289.138 155.82 285.146 154.133 279.987C152.447 274.845 151.596 267.527 151.596 258.065V230.472C151.596 222.222 152.292 216.007 153.669 211.797C155.061 207.602 158.001 203.857 162.534 200.564C167.051 197.27 172.559 195.623 179.025 195.623C185.492 195.623 190.969 197.254 195.517 200.533C200.081 203.795 203.113 207.928 204.629 212.9C206.13 217.871 206.888 224.925 206.888 234.061L206.919 234.045Z" fill="#FF0000"/>
<path d="M233.404 197.363V294.514H207.986V197.363H233.404Z" fill="#FF0000"/>
<path d="M234.905 234.993V228.483C234.905 220.963 235.632 215.168 237.071 211.097C238.51 207.027 241.418 203.422 245.781 200.299C250.144 197.177 255.806 195.607 262.768 195.607C271.122 195.607 277.418 197.379 281.642 200.921C285.881 204.463 288.418 208.798 289.284 213.956C290.135 219.099 290.568 229.71 290.568 245.76V294.514H266.558V285.86C265.057 289.325 263.108 291.935 260.725 293.675C258.343 295.415 255.496 296.285 252.201 296.285C247.885 296.285 243.924 294.84 240.32 291.935C236.715 289.03 234.905 282.675 234.905 272.856V264.87C234.905 257.599 235.864 252.643 237.783 250.001C239.701 247.36 244.45 244.284 252.015 240.773C260.122 236.966 264.454 234.403 265.026 233.082C265.599 231.761 265.877 229.073 265.877 225.034C265.877 219.953 265.568 216.644 264.933 215.106C264.299 213.568 263.247 212.807 261.793 212.807C260.122 212.807 259.086 213.459 258.683 214.749C258.281 216.038 258.08 219.394 258.08 224.816V234.993H234.905ZM265.893 248.323C261.948 251.788 259.642 254.694 259.024 257.04C258.389 259.386 258.08 262.757 258.08 267.138C258.08 272.172 258.358 275.404 258.9 276.88C259.441 278.356 260.54 279.071 262.164 279.071C263.789 279.071 264.717 278.496 265.196 277.346C265.66 276.196 265.893 273.182 265.893 268.304V248.323Z" fill="#FF0000"/>
<path d="M318.229 175.984V294.514H292.811V175.984H318.229Z" fill="#FF0000"/>
<path d="M86.5269 211.859H62.6403V203.081C62.6403 198.979 62.3309 196.369 61.7275 195.25C61.1087 194.131 60.1031 193.572 58.6644 193.572C57.1173 193.572 55.9416 194.333 55.1526 195.84C54.3636 197.348 53.9613 199.647 53.9613 202.723C53.9613 206.685 54.41 209.653 55.3073 211.657C56.1581 213.661 58.587 216.069 62.5784 218.897C74.0266 227.038 81.2359 233.719 84.2217 238.939C87.1921 244.16 88.6773 252.581 88.6773 264.202C88.6773 272.654 87.8573 278.869 86.202 282.877C84.5466 286.886 81.3597 290.242 76.6412 292.945C71.9227 295.648 66.4151 297.016 60.1496 297.016C53.2652 297.016 47.3863 295.446 42.5131 292.323C37.6399 289.201 34.4529 285.223 32.9523 280.391C31.4517 275.559 30.6936 268.708 30.6936 259.821V252.068H54.5801V266.486C54.5801 270.929 54.9205 273.788 55.5857 275.047C56.251 276.321 57.4422 276.958 59.1594 276.958C60.8767 276.958 62.1452 276.15 62.9807 274.549C63.8161 272.934 64.2338 270.541 64.2338 267.371C64.2338 260.396 63.4448 255.828 61.8513 253.684C60.2269 251.54 56.2046 247.951 49.8152 242.917C43.4259 237.836 39.1869 234.154 37.0984 231.855C35.0254 229.555 33.2926 226.386 31.9312 222.331C30.5698 218.275 29.8891 213.102 29.8891 206.809C29.8891 197.736 30.8638 191.102 32.7976 186.891C34.7314 182.696 37.8565 179.418 42.1728 177.041C46.489 174.679 51.7026 173.483 57.8135 173.483C64.4968 173.483 70.1899 174.773 74.893 177.367C79.596 179.962 82.7211 183.209 84.2372 187.14C85.7688 191.071 86.5269 197.751 86.5269 207.167V211.859Z" fill="#22DDDD"/>
<path d="M145.593 231.482V255.268C145.593 264 145.222 270.417 144.495 274.487C143.768 278.558 142.19 282.364 139.792 285.907C137.394 289.449 134.3 292.059 130.541 293.737C126.766 295.415 122.45 296.27 117.561 296.27C112.1 296.27 107.474 295.555 103.684 294.11C99.8934 292.665 96.954 290.506 94.85 287.6C92.746 284.695 91.2609 281.184 90.3636 277.051C89.4663 272.934 89.0176 266.734 89.0176 258.5V233.61C89.0176 224.583 89.8376 217.53 91.462 212.449C93.0864 207.369 96.0258 203.298 100.265 200.222C104.504 197.145 109.918 195.607 116.524 195.607C122.063 195.607 126.828 196.602 130.788 198.575C134.764 200.548 137.827 203.127 139.978 206.297C142.144 209.466 143.613 212.744 144.402 216.1C145.191 219.472 145.593 224.599 145.593 231.482ZM120.902 224.164C120.902 219.192 120.67 216.054 120.237 214.764C119.789 213.475 118.829 212.822 117.36 212.822C115.89 212.822 114.915 213.475 114.42 214.764C113.925 216.054 113.693 219.192 113.693 224.164V268.024C113.693 272.607 113.941 275.606 114.42 276.989C114.915 278.387 115.859 279.071 117.298 279.071C118.737 279.071 119.727 278.434 120.206 277.16C120.67 275.886 120.902 273.151 120.902 268.956V224.148V224.164Z" fill="#22DDDD"/>
<path d="M202.03 234.045H178.747V222.843C178.747 218.943 178.484 216.287 177.958 214.904C177.432 213.506 176.457 212.822 175.018 212.822C173.58 212.822 172.636 213.428 172.141 214.655C171.646 215.883 171.414 218.602 171.414 222.859V268.692C171.414 272.157 171.785 274.751 172.512 276.492C173.239 278.232 174.322 279.086 175.746 279.086C177.416 279.086 178.546 278.185 179.134 276.383C179.722 274.581 180.015 271.162 180.015 266.129V254.554H202.015C201.968 262.306 201.736 268.133 201.318 272.017C200.885 275.901 199.524 279.879 197.219 283.949C194.914 288.02 191.912 291.096 188.199 293.178C184.486 295.26 179.907 296.285 174.446 296.285C167.484 296.285 161.961 294.856 157.893 291.997C153.824 289.138 150.931 285.146 149.245 279.987C147.558 274.845 146.707 267.527 146.707 258.065V230.472C146.707 222.222 147.404 216.007 148.78 211.797C150.173 207.602 153.112 203.857 157.645 200.564C162.162 197.27 167.67 195.623 174.137 195.623C180.603 195.623 186.08 197.254 190.628 200.532C195.192 203.795 198.224 207.928 199.74 212.9C201.241 217.871 201.999 224.925 201.999 234.061L202.03 234.045Z" fill="#22DDDD"/>
<path d="M228.531 197.363V294.514H203.113V197.363H228.531Z" fill="#22DDDD"/>
<path d="M230.032 234.993V228.483C230.032 220.963 230.759 215.168 232.198 211.097C233.636 207.027 236.545 203.422 240.908 200.299C245.27 197.177 250.933 195.607 257.894 195.607C266.248 195.607 272.545 197.379 276.768 200.921C281.007 204.463 283.544 208.798 284.411 213.956C285.262 219.099 285.695 229.71 285.695 245.76V294.514H261.685V285.86C260.184 289.325 258.235 291.935 255.852 293.675C253.47 295.415 250.623 296.285 247.328 296.285C243.012 296.285 239.051 294.84 235.446 291.935C231.842 289.03 230.032 282.675 230.032 272.856V264.87C230.032 257.599 230.991 252.643 232.909 250.001C234.828 247.36 239.577 244.284 247.142 240.773C255.249 236.966 259.581 234.403 260.153 233.082C260.725 231.761 261.004 229.073 261.004 225.034C261.004 219.953 260.694 216.644 260.06 215.106C259.426 213.568 258.374 212.806 256.92 212.806C255.249 212.806 254.212 213.459 253.81 214.749C253.408 216.038 253.207 219.394 253.207 224.816V234.993H230.032ZM261.019 248.323C257.074 251.788 254.769 254.694 254.15 257.04C253.516 259.386 253.207 262.757 253.207 267.138C253.207 272.172 253.485 275.404 254.027 276.88C254.568 278.356 255.667 279.071 257.291 279.071C258.915 279.071 259.844 278.496 260.323 277.346C260.787 276.196 261.019 273.182 261.019 268.304V248.323Z" fill="#22DDDD"/>
<path d="M313.356 175.984V294.514H287.938V175.984H313.356Z" fill="#22DDDD"/>
<path d="M88.9712 211.859H65.0847V203.081C65.0847 198.979 64.7753 196.369 64.1719 195.25C63.5531 194.131 62.5475 193.572 61.1087 193.572C59.5617 193.572 58.3859 194.333 57.5969 195.84C56.8079 197.347 56.4057 199.647 56.4057 202.723C56.4057 206.685 56.8543 209.653 57.7516 211.657C58.6025 213.661 61.0314 216.069 65.0228 218.897C76.471 227.038 83.6803 233.719 86.6661 238.939C89.6364 244.16 91.1216 252.581 91.1216 264.202C91.1216 272.654 90.3017 278.869 88.6463 282.877C86.991 286.886 83.804 290.242 79.0855 292.945C74.367 295.648 68.8595 297.016 62.5939 297.016C55.7095 297.016 49.8307 295.446 44.9575 292.323C40.0842 289.201 36.8973 285.223 35.3966 280.391C33.896 275.559 33.1379 268.708 33.1379 259.821V252.068H57.0245V266.486C57.0245 270.929 57.3648 273.788 58.0301 275.047C58.6953 276.321 59.8866 276.958 61.6038 276.958C63.321 276.958 64.5896 276.15 65.425 274.549C66.2604 272.934 66.6781 270.541 66.6781 267.371C66.6781 260.395 65.8891 255.828 64.2957 253.684C62.6713 251.54 58.6489 247.951 52.2596 242.917C45.8702 237.836 41.6313 234.154 39.5428 231.855C37.4697 229.555 35.737 226.386 34.3756 222.331C33.0142 218.275 32.3335 213.102 32.3335 206.809C32.3335 197.736 33.3081 191.102 35.2419 186.891C37.1758 182.696 40.3008 179.418 44.6171 177.041C48.9334 174.679 54.147 173.483 60.2578 173.483C66.9411 173.483 72.6343 174.773 77.3373 177.367C82.0404 179.962 85.1655 183.209 86.6816 187.14C88.2132 191.071 88.9712 197.751 88.9712 207.167V211.859Z" fill="#F3FAFF"/>
<path d="M148.038 231.482V255.268C148.038 264 147.667 270.417 146.939 274.487C146.212 278.558 144.634 282.364 142.236 285.907C139.838 289.449 136.744 292.059 132.985 293.737C129.21 295.415 124.894 296.27 120.005 296.27C114.544 296.27 109.918 295.555 106.128 294.11C102.338 292.665 99.3984 290.506 97.2944 287.6C95.1904 284.695 93.7052 281.184 92.8079 277.051C91.9106 272.934 91.462 266.734 91.462 258.5V233.61C91.462 224.583 92.2819 217.53 93.9063 212.449C95.5307 207.369 98.4701 203.298 102.709 200.222C106.948 197.145 112.363 195.607 118.969 195.607C124.507 195.607 129.272 196.602 133.233 198.575C137.208 200.548 140.272 203.127 142.422 206.297C144.588 209.466 146.058 212.744 146.847 216.1C147.636 219.472 148.038 224.599 148.038 231.482ZM123.347 224.164C123.347 219.192 123.115 216.054 122.682 214.764C122.233 213.475 121.274 212.822 119.804 212.822C118.334 212.822 117.36 213.475 116.865 214.764C116.37 216.054 116.138 219.192 116.138 224.164V268.024C116.138 272.607 116.385 275.606 116.865 276.989C117.36 278.387 118.303 279.071 119.742 279.071C121.181 279.071 122.171 278.434 122.651 277.16C123.115 275.886 123.347 273.151 123.347 268.956V224.148V224.164Z" fill="#F3FAFF"/>
<path d="M204.474 234.045H181.191V222.843C181.191 218.943 180.928 216.287 180.402 214.904C179.876 213.506 178.902 212.822 177.463 212.822C176.024 212.822 175.08 213.428 174.585 214.655C174.09 215.883 173.858 218.602 173.858 222.859V268.692C173.858 272.157 174.229 274.751 174.957 276.492C175.684 278.232 176.767 279.086 178.19 279.086C179.861 279.086 180.99 278.185 181.578 276.383C182.166 274.581 182.46 271.162 182.46 266.129V254.554H204.459C204.413 262.306 204.181 268.133 203.763 272.017C203.33 275.901 201.968 279.879 199.663 283.949C197.358 288.02 194.357 291.096 190.644 293.178C186.931 295.26 182.352 296.285 176.89 296.285C169.929 296.285 164.406 294.856 160.337 291.997C156.268 289.138 153.375 285.146 151.689 279.987C150.003 274.845 149.152 267.527 149.152 258.065V230.472C149.152 222.222 149.848 216.007 151.225 211.797C152.617 207.602 155.557 203.857 160.089 200.564C164.607 197.27 170.114 195.623 176.581 195.623C183.048 195.623 188.524 197.254 193.073 200.533C197.636 203.795 200.669 207.928 202.185 212.9C203.685 217.871 204.443 224.925 204.443 234.061L204.474 234.045Z" fill="#F3FAFF"/>
<path d="M230.976 197.363V294.514H205.557V197.363H230.976Z" fill="#F3FAFF"/>
<path d="M232.476 234.993V228.483C232.476 220.963 233.203 215.168 234.642 211.097C236.081 207.027 238.989 203.422 243.352 200.299C247.715 197.177 253.377 195.607 260.339 195.607C268.693 195.607 274.989 197.379 279.213 200.921C283.452 204.463 285.989 208.798 286.855 213.956C287.706 219.099 288.139 229.71 288.139 245.76V294.514H264.129V285.86C262.628 289.325 260.679 291.935 258.297 293.675C255.914 295.415 253.067 296.285 249.772 296.285C245.456 296.285 241.495 294.84 237.891 291.935C234.286 289.03 232.476 282.675 232.476 272.856V264.87C232.476 257.599 233.435 252.643 235.354 250.001C237.272 247.36 242.021 244.284 249.587 240.773C257.693 236.966 262.025 234.403 262.597 233.082C263.17 231.761 263.448 229.073 263.448 225.034C263.448 219.953 263.139 216.644 262.505 215.106C261.87 213.568 260.818 212.807 259.364 212.807C257.693 212.807 256.657 213.459 256.254 214.749C255.852 216.038 255.651 219.394 255.651 224.816V234.993H232.476ZM263.448 248.323C259.503 251.788 257.198 254.694 256.579 257.04C255.945 259.386 255.636 262.757 255.636 267.138C255.636 272.172 255.914 275.404 256.456 276.88C256.997 278.356 258.095 279.071 259.72 279.071C261.344 279.071 262.272 278.496 262.752 277.346C263.216 276.196 263.448 273.182 263.448 268.304V248.323Z" fill="#F3FAFF"/>
<path d="M315.801 175.984V294.514H290.382V175.984H315.801Z" fill="#F3FAFF"/>
</svg>
