<svg width="29" height="29" viewBox="0 0 29 29" fill="none" xmlns="http://www.w3.org/2000/svg">
<path d="M14.9805 0.0396652C22.7109 0.0396652 28.9784 6.30634 28.9785 14.0367C28.9785 21.7672 22.711 28.0348 14.9805 28.0348C7.25008 28.0346 0.983398 21.7672 0.983398 14.0367C0.983532 6.30643 7.25016 0.0397987 14.9805 0.0396652ZM14.9805 6.734C12.9973 6.734 12.7486 6.7424 11.9697 6.77795C11.1924 6.81343 10.6617 6.93729 10.1973 7.11779C9.71699 7.30441 9.30931 7.55361 8.90332 7.95959C8.49732 8.36559 8.24815 8.77331 8.06152 9.25353C7.88097 9.71804 7.75716 10.2488 7.72168 11.026C7.68614 11.8049 7.67773 12.0536 7.67773 14.0367C7.67773 16.0197 7.68615 16.269 7.72168 17.0475C7.75717 17.8248 7.88095 18.3564 8.06152 18.8209C8.24804 19.3009 8.49755 19.7081 8.90332 20.1139C9.30932 20.5199 9.71698 20.77 10.1973 20.9567C10.6617 21.1372 11.1926 21.26 11.9697 21.2955C12.7486 21.3311 12.9973 21.3395 14.9805 21.3395C16.9635 21.3395 17.2127 21.3311 17.9912 21.2955C18.7685 21.26 19.3002 21.1372 19.7646 20.9567C20.2448 20.7701 20.6517 20.5198 21.0576 20.1139C21.4636 19.7079 21.7138 19.3011 21.9004 18.8209C22.0809 18.3565 22.2037 17.8255 22.2393 17.0485C22.2748 16.2695 22.2832 16.0201 22.2832 14.0367C22.2832 12.0536 22.2748 11.8049 22.2393 11.026C22.2038 10.2488 22.0809 9.71795 21.9004 9.25353C21.7138 8.77325 21.4636 8.36559 21.0576 7.95959C20.6518 7.55382 20.2446 7.30431 19.7646 7.11779C19.3001 6.93727 18.7685 6.81343 17.9912 6.77795C17.2127 6.74242 16.9634 6.734 14.9805 6.734ZM14.9805 8.05041C16.9304 8.05041 17.1616 8.05731 17.9316 8.0924C18.6437 8.12492 19.0307 8.24434 19.2881 8.34435C19.6287 8.4768 19.8725 8.6348 20.1279 8.89025C20.3833 9.14571 20.5414 9.38936 20.6738 9.73009C20.7738 9.98742 20.8923 10.374 20.9248 11.0856C20.9599 11.8556 20.9678 12.087 20.9678 14.0367C20.9678 15.9866 20.9599 16.2179 20.9248 16.9879C20.8923 17.6999 20.7738 18.087 20.6738 18.3444C20.5414 18.6851 20.3834 18.9287 20.1279 19.1842C19.8724 19.4397 19.6288 19.5977 19.2881 19.7301C19.0307 19.8301 18.6437 19.9486 17.9316 19.9811C17.1617 20.0162 16.9305 20.024 14.9805 20.024C13.0306 20.024 12.7992 20.0162 12.0293 19.9811C11.3177 19.9485 10.9311 19.8301 10.6738 19.7301C10.3331 19.5977 10.0894 19.4396 9.83398 19.1842C9.57854 18.9287 9.42048 18.685 9.28809 18.3444C9.18807 18.087 9.0686 17.6999 9.03613 16.9879C9.00099 16.2179 8.99316 15.9867 8.99316 14.0367C8.99317 12.087 9.00099 11.8556 9.03613 11.0856C9.06868 10.3738 9.18809 9.98741 9.28809 9.73009C9.42051 9.38925 9.57844 9.1458 9.83398 8.89025C10.0896 8.63466 10.333 8.47683 10.6738 8.34435C10.9311 8.24436 11.3175 8.12495 12.0293 8.0924C12.7993 8.05731 13.0307 8.05041 14.9805 8.05041ZM14.9805 10.2867C12.9095 10.2869 11.2306 11.9659 11.2305 14.0367C11.2305 16.1077 12.9094 17.7866 14.9805 17.7867C17.0516 17.7867 18.7305 16.1079 18.7305 14.0367C18.7303 11.9657 17.0515 10.2867 14.9805 10.2867ZM14.9805 11.6022C16.3248 11.6022 17.4149 12.6924 17.415 14.0367C17.415 15.3812 16.3249 16.4713 14.9805 16.4713C13.6362 16.4712 12.5459 15.3811 12.5459 14.0367C12.546 12.6925 13.6362 11.6023 14.9805 11.6022ZM18.8789 9.26232C18.3951 9.26238 18.0031 9.65444 18.0029 10.1383C18.0029 10.6223 18.3949 11.0152 18.8789 11.0153C19.363 11.0153 19.7549 10.6223 19.7549 10.1383C19.7547 9.65446 19.3628 9.26232 18.8789 9.26232Z" fill="#40B6FF"/>
</svg>
